<?xml version="1.0" standalone="no"?>
<!DOCTYPE svg PUBLIC "-//W3C//DTD SVG 20010904//EN"
 "http://www.w3.org/TR/2001/REC-SVG-20010904/DTD/svg10.dtd">
<svg version="1.0" xmlns="http://www.w3.org/2000/svg"
 width="50.000000pt" height="50.000000pt" viewBox="0 0 50.000000 50.000000"
 preserveAspectRatio="xMidYMid meet">

<g transform="translate(0.000000,50.000000) scale(0.100000,-0.100000)"
fill="#000000" stroke="none">
<path d="M65 491 c-11 -5 -29 -19 -40 -31 -19 -20 -20 -36 -20 -211 l0 -189
28 -27 27 -28 190 0 190 0 27 28 28 27 0 190 0 190 -28 27 -27 28 -178 2 c-97
1 -186 -1 -197 -6z m286 -132 l89 -51 0 -79 c0 -64 -3 -79 -15 -79 -12 0 -15
13 -15 60 0 33 -2 60 -4 60 -2 0 -35 -18 -74 -40 -38 -22 -75 -40 -82 -40 -18
0 -190 100 -190 110 0 11 170 109 189 110 7 0 54 -23 102 -51z m-160 -161 l59
-33 59 33 c32 17 61 32 65 32 3 0 6 -17 6 -38 0 -37 -2 -39 -65 -73 l-65 -34
-65 34 c-63 34 -65 36 -65 73 0 21 3 38 6 38 4 0 33 -15 65 -32z"/>
</g>
</svg>
