<?xml version="1.0" encoding="UTF-8"?>
<!DOCTYPE svg PUBLIC "-//W3C//DTD SVG 1.1//EN" "http://www.w3.org/Graphics/SVG/1.1/DTD/svg11.dtd">
<svg xmlns="http://www.w3.org/2000/svg" version="1.1" width="48px" height="48px" style="shape-rendering:geometricPrecision; text-rendering:geometricPrecision; image-rendering:optimizeQuality; fill-rule:evenodd; clip-rule:evenodd" xmlns:xlink="http://www.w3.org/1999/xlink">
<g><path style="opacity:1" fill="#fbfb17" d="M 3.5,-0.5 C 16.8333,-0.5 30.1667,-0.5 43.5,-0.5C 43.8333,1.83333 45.1667,3.16667 47.5,3.5C 47.5,16.8333 47.5,30.1667 47.5,43.5C 46.448,43.3505 45.448,43.5172 44.5,44C 43.4092,45.5501 42.0758,46.7168 40.5,47.5C 28.1667,47.5 15.8333,47.5 3.5,47.5C 3.16667,45.1667 1.83333,43.8333 -0.5,43.5C -0.5,30.1667 -0.5,16.8333 -0.5,3.5C 1.83333,3.16667 3.16667,1.83333 3.5,-0.5 Z"/></g>
<g><path style="opacity:0.208" fill="#6e6fcd" d="M 2.5,-0.5 C 2.83333,-0.5 3.16667,-0.5 3.5,-0.5C 3.16667,1.83333 1.83333,3.16667 -0.5,3.5C -0.5,3.16667 -0.5,2.83333 -0.5,2.5C 0.833333,1.83333 1.83333,0.833333 2.5,-0.5 Z"/></g>
<g><path style="opacity:0.204" fill="#6b6bcd" d="M 43.5,-0.5 C 43.8333,-0.5 44.1667,-0.5 44.5,-0.5C 45.1667,0.833333 46.1667,1.83333 47.5,2.5C 47.5,2.83333 47.5,3.16667 47.5,3.5C 45.1667,3.16667 43.8333,1.83333 43.5,-0.5 Z"/></g>
<g><path style="opacity:1" fill="#f8f9f8" d="M 41.5,32.5 C 39.8746,29.1091 38.8746,25.4425 38.5,21.5C 37.1667,22.1667 35.8333,22.8333 34.5,23.5C 30.9948,26.2496 26.9948,27.9163 22.5,28.5C 17.7465,26.9565 13.4132,24.6231 9.5,21.5C 6.48134,21.0277 5.48134,19.5277 6.5,17C 11.5899,14.5238 16.5899,11.8571 21.5,9C 22.8333,8.33333 24.1667,8.33333 25.5,9C 30.6847,11.8361 35.8513,14.6694 41,17.5C 41.4993,22.4889 41.6659,27.4889 41.5,32.5 Z"/></g>
<g><path style="opacity:1" fill="#e2e595" d="M 38.5,21.5 C 38.8746,25.4425 39.8746,29.1091 41.5,32.5C 40.791,33.404 39.791,33.7373 38.5,33.5C 38.5,29.5 38.5,25.5 38.5,21.5 Z"/></g>
<g><path style="opacity:1" fill="#ebeb53" d="M 9.5,21.5 C 13.4132,24.6231 17.7465,26.9565 22.5,28.5C 26.9948,27.9163 30.9948,26.2496 34.5,23.5C 34.8333,24.1667 35.1667,24.8333 35.5,25.5C 31.4903,27.5049 27.4903,29.5049 23.5,31.5C 19.6245,29.645 15.7912,27.645 12,25.5C 11.5026,28.146 11.3359,30.8127 11.5,33.5C 10.7063,29.6423 10.0397,25.6423 9.5,21.5 Z"/></g>
<g><path style="opacity:1" fill="#d1d583" d="M 35.5,25.5 C 36.4731,27.9479 36.8064,30.6146 36.5,33.5C 35.5,33.5 34.5,33.5 33.5,33.5C 35.2018,31.1998 35.8685,28.5331 35.5,25.5 Z"/></g>
<g><path style="opacity:1" fill="#f4f4f8" d="M 35.5,25.5 C 35.8685,28.5331 35.2018,31.1998 33.5,33.5C 30.4671,35.6831 27.1338,37.3498 23.5,38.5C 19.4837,36.8237 15.4837,35.1571 11.5,33.5C 11.3359,30.8127 11.5026,28.146 12,25.5C 15.7912,27.645 19.6245,29.645 23.5,31.5C 27.4903,29.5049 31.4903,27.5049 35.5,25.5 Z"/></g>
<g><path style="opacity:0.18" fill="#8c85af" d="M 47.5,43.5 C 47.5,43.8333 47.5,44.1667 47.5,44.5C 46.1667,45.1667 45.1667,46.1667 44.5,47.5C 43.1667,47.5 41.8333,47.5 40.5,47.5C 42.0758,46.7168 43.4092,45.5501 44.5,44C 45.448,43.5172 46.448,43.3505 47.5,43.5 Z"/></g>
<g><path style="opacity:0.204" fill="#6b6bcd" d="M -0.5,44.5 C -0.5,44.1667 -0.5,43.8333 -0.5,43.5C 1.83333,43.8333 3.16667,45.1667 3.5,47.5C 3.16667,47.5 2.83333,47.5 2.5,47.5C 1.83333,46.1667 0.833333,45.1667 -0.5,44.5 Z"/></g>
</svg>
